<mxfile host="65bd71144e">
    <diagram id="4lk0hH0pGenzxfeEFgNQ" name="Sequence">
        <mxGraphModel dx="1775" dy="788" grid="1" gridSize="10" guides="1" tooltips="1" connect="1" arrows="1" fold="1" page="1" pageScale="1" pageWidth="827" pageHeight="1169" math="0" shadow="0">
            <root>
                <mxCell id="0"/>
                <mxCell id="1" parent="0"/>
                <mxCell id="37" value="&lt;span style=&quot;color: rgb(240, 240, 240); font-family: Helvetica; font-size: 12px; font-style: normal; font-variant-ligatures: normal; font-variant-caps: normal; font-weight: 400; letter-spacing: normal; orphans: 2; text-align: center; text-indent: 0px; text-transform: none; widows: 2; word-spacing: 0px; -webkit-text-stroke-width: 0px; background-color: rgb(42, 37, 47); text-decoration-thickness: initial; text-decoration-style: initial; text-decoration-color: initial; float: none; display: inline !important;&quot;&gt;Alt&lt;/span&gt;" style="shape=umlFrame;tabPosition=left;html=1;boundedLbl=1;labelInHeader=1;width=50;height=30;" vertex="1" parent="1">
                    <mxGeometry x="-130" y="590" width="890" height="156" as="geometry"/>
                </mxCell>
                <mxCell id="38" value="[user created successfully]" style="text;align=center;" vertex="1" parent="37">
                    <mxGeometry width="100" height="20" relative="1" as="geometry">
                        <mxPoint x="30" y="30" as="offset"/>
                    </mxGeometry>
                </mxCell>
                <mxCell id="29" value="&lt;span style=&quot;color: rgb(240, 240, 240); font-family: Helvetica; font-size: 12px; font-style: normal; font-variant-ligatures: normal; font-variant-caps: normal; font-weight: 400; letter-spacing: normal; orphans: 2; text-align: center; text-indent: 0px; text-transform: none; widows: 2; word-spacing: 0px; -webkit-text-stroke-width: 0px; background-color: rgb(42, 37, 47); text-decoration-thickness: initial; text-decoration-style: initial; text-decoration-color: initial; float: none; display: inline !important;&quot;&gt;Alt&lt;/span&gt;" style="shape=umlFrame;tabPosition=left;html=1;boundedLbl=1;labelInHeader=1;width=50;height=30;" vertex="1" parent="1">
                    <mxGeometry x="-130" y="434" width="890" height="156" as="geometry"/>
                </mxCell>
                <mxCell id="30" value="[user email already exists in db]" style="text;align=center;" vertex="1" parent="29">
                    <mxGeometry width="100" height="20" relative="1" as="geometry">
                        <mxPoint x="45" y="36" as="offset"/>
                    </mxGeometry>
                </mxCell>
                <mxCell id="2" value="App" style="shape=umlLifeline;perimeter=lifelinePerimeter;whiteSpace=wrap;html=1;container=1;collapsible=0;recursiveResize=0;outlineConnect=0;" vertex="1" parent="1">
                    <mxGeometry x="280" y="40" width="100" height="880" as="geometry"/>
                </mxCell>
                <mxCell id="3" value="" style="html=1;points=[];perimeter=orthogonalPerimeter;fillColor=#808080;" vertex="1" parent="2">
                    <mxGeometry x="45" y="90" width="10" height="110" as="geometry"/>
                </mxCell>
                <mxCell id="12" value="render sign-on page" style="edgeStyle=none;html=1;" edge="1" parent="2" source="3" target="3">
                    <mxGeometry x="0.0175" relative="1" as="geometry">
                        <mxPoint as="offset"/>
                    </mxGeometry>
                </mxCell>
                <mxCell id="13" value="" style="html=1;points=[];perimeter=orthogonalPerimeter;fillColor=#808080;" vertex="1" parent="2">
                    <mxGeometry x="45" y="240" width="10" height="490" as="geometry"/>
                </mxCell>
                <mxCell id="16" value="build user object" style="edgeStyle=none;html=1;" edge="1" parent="2">
                    <mxGeometry relative="1" as="geometry">
                        <mxPoint x="55" y="260" as="sourcePoint"/>
                        <mxPoint x="55" y="290" as="targetPoint"/>
                        <Array as="points">
                            <mxPoint x="75" y="260"/>
                            <mxPoint x="75" y="290"/>
                        </Array>
                    </mxGeometry>
                </mxCell>
                <mxCell id="25" value="render sign-on page" style="edgeStyle=none;html=1;entryX=0.947;entryY=0.55;entryDx=0;entryDy=0;entryPerimeter=0;" edge="1" parent="2">
                    <mxGeometry relative="1" as="geometry">
                        <mxPoint x="55" y="430" as="sourcePoint"/>
                        <mxPoint x="54.47000000000003" y="479.5" as="targetPoint"/>
                        <Array as="points">
                            <mxPoint x="80" y="430"/>
                            <mxPoint x="80" y="480"/>
                        </Array>
                    </mxGeometry>
                </mxCell>
                <mxCell id="43" value="render index page" style="edgeStyle=none;html=1;entryX=1.075;entryY=0.864;entryDx=0;entryDy=0;entryPerimeter=0;" edge="1" parent="2" target="13">
                    <mxGeometry relative="1" as="geometry">
                        <mxPoint x="55" y="605" as="sourcePoint"/>
                        <mxPoint x="55" y="625" as="targetPoint"/>
                        <Array as="points">
                            <mxPoint x="80" y="605"/>
                            <mxPoint x="80" y="660"/>
                        </Array>
                    </mxGeometry>
                </mxCell>
                <mxCell id="4" value="User" style="shape=umlLifeline;perimeter=lifelinePerimeter;whiteSpace=wrap;html=1;container=1;collapsible=0;recursiveResize=0;outlineConnect=0;" vertex="1" parent="1">
                    <mxGeometry x="40" y="40" width="100" height="880" as="geometry"/>
                </mxCell>
                <mxCell id="5" value="" style="html=1;points=[];perimeter=orthogonalPerimeter;" vertex="1" parent="4">
                    <mxGeometry x="45" y="90" width="10" height="700" as="geometry"/>
                </mxCell>
                <mxCell id="6" value="DB" style="shape=umlLifeline;perimeter=lifelinePerimeter;whiteSpace=wrap;html=1;container=1;collapsible=0;recursiveResize=0;outlineConnect=0;" vertex="1" parent="1">
                    <mxGeometry x="520" y="40" width="100" height="880" as="geometry"/>
                </mxCell>
                <mxCell id="7" value="" style="html=1;points=[];perimeter=orthogonalPerimeter;fillColor=#808080;" vertex="1" parent="6">
                    <mxGeometry x="45" y="280" width="10" height="320" as="geometry"/>
                </mxCell>
                <mxCell id="20" value="insert user record" style="edgeStyle=none;html=1;" edge="1" parent="6" source="7" target="7">
                    <mxGeometry relative="1" as="geometry">
                        <Array as="points">
                            <mxPoint x="70" y="320"/>
                            <mxPoint x="70" y="360"/>
                        </Array>
                    </mxGeometry>
                </mxCell>
                <mxCell id="8" value="GET sign-on" style="edgeStyle=none;html=1;" edge="1" parent="1" source="5" target="2">
                    <mxGeometry relative="1" as="geometry">
                        <Array as="points">
                            <mxPoint x="260" y="140"/>
                        </Array>
                    </mxGeometry>
                </mxCell>
                <mxCell id="10" value="sign-on page" style="edgeStyle=none;html=1;dashed=1;" edge="1" parent="1" source="3" target="4">
                    <mxGeometry relative="1" as="geometry">
                        <Array as="points">
                            <mxPoint x="280" y="230"/>
                        </Array>
                    </mxGeometry>
                </mxCell>
                <mxCell id="14" value="send sign-on data" style="edgeStyle=none;html=1;" edge="1" parent="1" source="5" target="2">
                    <mxGeometry relative="1" as="geometry">
                        <Array as="points">
                            <mxPoint x="280" y="290"/>
                        </Array>
                    </mxGeometry>
                </mxCell>
                <mxCell id="17" value="user object" style="edgeStyle=none;html=1;" edge="1" parent="1" source="13" target="6">
                    <mxGeometry relative="1" as="geometry">
                        <Array as="points">
                            <mxPoint x="470" y="350"/>
                        </Array>
                    </mxGeometry>
                </mxCell>
                <mxCell id="23" value="integrity error" style="edgeStyle=none;html=1;dashed=1;" edge="1" parent="1" source="7" target="13">
                    <mxGeometry relative="1" as="geometry">
                        <Array as="points">
                            <mxPoint x="530" y="460"/>
                        </Array>
                    </mxGeometry>
                </mxCell>
                <mxCell id="26" value="sign-on page with error message" style="edgeStyle=none;html=1;dashed=1;" edge="1" parent="1" source="13" target="5">
                    <mxGeometry relative="1" as="geometry">
                        <Array as="points">
                            <mxPoint x="120" y="570"/>
                        </Array>
                    </mxGeometry>
                </mxCell>
                <mxCell id="39" style="edgeStyle=none;html=1;entryX=1.158;entryY=0.689;entryDx=0;entryDy=0;entryPerimeter=0;dashed=1;" edge="1" parent="1" source="7" target="13">
                    <mxGeometry relative="1" as="geometry"/>
                </mxCell>
                <mxCell id="42" value="user saved" style="edgeLabel;html=1;align=center;verticalAlign=middle;resizable=0;points=[];" vertex="1" connectable="0" parent="39">
                    <mxGeometry x="0.3856" y="2" relative="1" as="geometry">
                        <mxPoint x="33" as="offset"/>
                    </mxGeometry>
                </mxCell>
                <mxCell id="44" value="index page" style="edgeStyle=none;html=1;dashed=1;" edge="1" parent="1" source="13" target="5">
                    <mxGeometry relative="1" as="geometry">
                        <Array as="points">
                            <mxPoint x="260" y="720"/>
                        </Array>
                    </mxGeometry>
                </mxCell>
            </root>
        </mxGraphModel>
    </diagram>
    <diagram id="3uvwzyqlhqbCCpM6ErgL" name="Activity">
        <mxGraphModel dx="948" dy="788" grid="1" gridSize="10" guides="1" tooltips="1" connect="1" arrows="1" fold="1" page="1" pageScale="1" pageWidth="827" pageHeight="1169" math="0" shadow="0">
            <root>
                <mxCell id="0"/>
                <mxCell id="1" parent="0"/>
                <mxCell id="G5tOmWW4fX-eoxxO3cUC-1" value="Sign-on" style="swimlane;childLayout=stackLayout;resizeParent=1;resizeParentMax=0;startSize=20;html=1;" vertex="1" parent="1">
                    <mxGeometry x="40" y="80" width="640" height="760" as="geometry"/>
                </mxCell>
                <mxCell id="G5tOmWW4fX-eoxxO3cUC-2" value="User" style="swimlane;startSize=20;html=1;" vertex="1" parent="G5tOmWW4fX-eoxxO3cUC-1">
                    <mxGeometry y="20" width="200" height="740" as="geometry">
                        <mxRectangle y="20" width="40" height="740" as="alternateBounds"/>
                    </mxGeometry>
                </mxCell>
                <mxCell id="G5tOmWW4fX-eoxxO3cUC-11" style="edgeStyle=none;html=1;" edge="1" parent="G5tOmWW4fX-eoxxO3cUC-2" source="G5tOmWW4fX-eoxxO3cUC-5" target="G5tOmWW4fX-eoxxO3cUC-9">
                    <mxGeometry relative="1" as="geometry"/>
                </mxCell>
                <mxCell id="G5tOmWW4fX-eoxxO3cUC-5" value="" style="ellipse;fillColor=strokeColor;" vertex="1" parent="G5tOmWW4fX-eoxxO3cUC-2">
                    <mxGeometry x="80" y="60" width="40" height="40" as="geometry"/>
                </mxCell>
                <mxCell id="G5tOmWW4fX-eoxxO3cUC-9" value="Post sign-on data" style="html=1;align=center;verticalAlign=top;rounded=1;absoluteArcSize=1;arcSize=10;dashed=0;" vertex="1" parent="G5tOmWW4fX-eoxxO3cUC-2">
                    <mxGeometry x="30" y="140" width="140" height="40" as="geometry"/>
                </mxCell>
                <mxCell id="G5tOmWW4fX-eoxxO3cUC-17" value="" style="ellipse;html=1;shape=endState;fillColor=strokeColor;" vertex="1" parent="G5tOmWW4fX-eoxxO3cUC-2">
                    <mxGeometry x="80" y="460" width="40" height="40" as="geometry"/>
                </mxCell>
                <mxCell id="G5tOmWW4fX-eoxxO3cUC-3" value="App" style="swimlane;startSize=20;html=1;" vertex="1" parent="G5tOmWW4fX-eoxxO3cUC-1">
                    <mxGeometry x="200" y="20" width="440" height="740" as="geometry"/>
                </mxCell>
                <mxCell id="G5tOmWW4fX-eoxxO3cUC-13" style="edgeStyle=none;html=1;" edge="1" parent="G5tOmWW4fX-eoxxO3cUC-3" source="G5tOmWW4fX-eoxxO3cUC-8" target="G5tOmWW4fX-eoxxO3cUC-12">
                    <mxGeometry relative="1" as="geometry">
                        <Array as="points">
                            <mxPoint x="300" y="160"/>
                        </Array>
                    </mxGeometry>
                </mxCell>
                <mxCell id="G5tOmWW4fX-eoxxO3cUC-8" value="Validate sign-on data" style="html=1;align=center;verticalAlign=top;rounded=1;absoluteArcSize=1;arcSize=10;dashed=0;" vertex="1" parent="G5tOmWW4fX-eoxxO3cUC-3">
                    <mxGeometry x="30" y="140" width="140" height="40" as="geometry"/>
                </mxCell>
                <mxCell id="G5tOmWW4fX-eoxxO3cUC-15" style="edgeStyle=none;html=1;" edge="1" parent="G5tOmWW4fX-eoxxO3cUC-3" source="G5tOmWW4fX-eoxxO3cUC-12" target="G5tOmWW4fX-eoxxO3cUC-14">
                    <mxGeometry relative="1" as="geometry"/>
                </mxCell>
                <mxCell id="nrWcvt1calmokvssd4SF-2" style="edgeStyle=none;html=1;" edge="1" parent="G5tOmWW4fX-eoxxO3cUC-3" source="G5tOmWW4fX-eoxxO3cUC-12" target="nrWcvt1calmokvssd4SF-1">
                    <mxGeometry relative="1" as="geometry"/>
                </mxCell>
                <mxCell id="G5tOmWW4fX-eoxxO3cUC-12" value="data valid?" style="rhombus;" vertex="1" parent="G5tOmWW4fX-eoxxO3cUC-3">
                    <mxGeometry x="240" y="220" width="120" height="80" as="geometry"/>
                </mxCell>
                <mxCell id="G5tOmWW4fX-eoxxO3cUC-14" value="Render and return&lt;br&gt;sign-on page&lt;br&gt;with error message" style="html=1;align=center;verticalAlign=top;rounded=1;absoluteArcSize=1;arcSize=10;dashed=0;" vertex="1" parent="G5tOmWW4fX-eoxxO3cUC-3">
                    <mxGeometry x="34" y="230" width="140" height="60" as="geometry"/>
                </mxCell>
                <mxCell id="G5tOmWW4fX-eoxxO3cUC-16" value="no" style="text;html=1;align=center;verticalAlign=middle;resizable=0;points=[];autosize=1;strokeColor=none;fillColor=none;" vertex="1" parent="G5tOmWW4fX-eoxxO3cUC-3">
                    <mxGeometry x="200" y="230" width="40" height="30" as="geometry"/>
                </mxCell>
                <mxCell id="nrWcvt1calmokvssd4SF-4" style="edgeStyle=none;html=1;" edge="1" parent="G5tOmWW4fX-eoxxO3cUC-3" source="nrWcvt1calmokvssd4SF-1" target="nrWcvt1calmokvssd4SF-3">
                    <mxGeometry relative="1" as="geometry"/>
                </mxCell>
                <mxCell id="nrWcvt1calmokvssd4SF-1" value="Create user object" style="html=1;align=center;verticalAlign=top;rounded=1;absoluteArcSize=1;arcSize=10;dashed=0;" vertex="1" parent="G5tOmWW4fX-eoxxO3cUC-3">
                    <mxGeometry x="230" y="340" width="140" height="40" as="geometry"/>
                </mxCell>
                <mxCell id="nrWcvt1calmokvssd4SF-6" style="edgeStyle=none;html=1;" edge="1" parent="G5tOmWW4fX-eoxxO3cUC-3" source="nrWcvt1calmokvssd4SF-3" target="nrWcvt1calmokvssd4SF-5">
                    <mxGeometry relative="1" as="geometry"/>
                </mxCell>
                <mxCell id="nrWcvt1calmokvssd4SF-3" value="Save user in DB" style="html=1;align=center;verticalAlign=top;rounded=1;absoluteArcSize=1;arcSize=10;dashed=0;" vertex="1" parent="G5tOmWW4fX-eoxxO3cUC-3">
                    <mxGeometry x="230" y="430" width="140" height="40" as="geometry"/>
                </mxCell>
                <mxCell id="nrWcvt1calmokvssd4SF-8" style="edgeStyle=none;html=1;" edge="1" parent="G5tOmWW4fX-eoxxO3cUC-3" source="nrWcvt1calmokvssd4SF-5" target="G5tOmWW4fX-eoxxO3cUC-14">
                    <mxGeometry relative="1" as="geometry">
                        <Array as="points">
                            <mxPoint x="104" y="540"/>
                        </Array>
                    </mxGeometry>
                </mxCell>
                <mxCell id="nrWcvt1calmokvssd4SF-11" style="edgeStyle=none;html=1;" edge="1" parent="G5tOmWW4fX-eoxxO3cUC-3" source="nrWcvt1calmokvssd4SF-5" target="nrWcvt1calmokvssd4SF-10">
                    <mxGeometry relative="1" as="geometry">
                        <Array as="points">
                            <mxPoint x="300" y="650"/>
                        </Array>
                    </mxGeometry>
                </mxCell>
                <mxCell id="nrWcvt1calmokvssd4SF-5" value="email already&#10;exists in db" style="rhombus;" vertex="1" parent="G5tOmWW4fX-eoxxO3cUC-3">
                    <mxGeometry x="240" y="500" width="120" height="80" as="geometry"/>
                </mxCell>
                <mxCell id="nrWcvt1calmokvssd4SF-7" value="yes" style="text;html=1;align=center;verticalAlign=middle;resizable=0;points=[];autosize=1;strokeColor=none;fillColor=none;" vertex="1" parent="G5tOmWW4fX-eoxxO3cUC-3">
                    <mxGeometry x="300" y="300" width="40" height="30" as="geometry"/>
                </mxCell>
                <mxCell id="nrWcvt1calmokvssd4SF-9" value="yes" style="text;html=1;align=center;verticalAlign=middle;resizable=0;points=[];autosize=1;strokeColor=none;fillColor=none;" vertex="1" parent="G5tOmWW4fX-eoxxO3cUC-3">
                    <mxGeometry x="200" y="510" width="40" height="30" as="geometry"/>
                </mxCell>
                <mxCell id="nrWcvt1calmokvssd4SF-10" value="Render and return&lt;br&gt;index page" style="html=1;align=center;verticalAlign=top;rounded=1;absoluteArcSize=1;arcSize=10;dashed=0;" vertex="1" parent="G5tOmWW4fX-eoxxO3cUC-3">
                    <mxGeometry x="34" y="620" width="140" height="60" as="geometry"/>
                </mxCell>
                <mxCell id="nrWcvt1calmokvssd4SF-12" value="no" style="text;html=1;align=center;verticalAlign=middle;resizable=0;points=[];autosize=1;strokeColor=none;fillColor=none;" vertex="1" parent="G5tOmWW4fX-eoxxO3cUC-3">
                    <mxGeometry x="300" y="570" width="40" height="30" as="geometry"/>
                </mxCell>
                <mxCell id="G5tOmWW4fX-eoxxO3cUC-10" style="edgeStyle=none;html=1;" edge="1" parent="G5tOmWW4fX-eoxxO3cUC-1" source="G5tOmWW4fX-eoxxO3cUC-9" target="G5tOmWW4fX-eoxxO3cUC-8">
                    <mxGeometry relative="1" as="geometry"/>
                </mxCell>
                <mxCell id="G5tOmWW4fX-eoxxO3cUC-18" style="edgeStyle=none;html=1;" edge="1" parent="G5tOmWW4fX-eoxxO3cUC-1" source="G5tOmWW4fX-eoxxO3cUC-14" target="G5tOmWW4fX-eoxxO3cUC-17">
                    <mxGeometry relative="1" as="geometry">
                        <Array as="points">
                            <mxPoint x="100" y="280"/>
                        </Array>
                    </mxGeometry>
                </mxCell>
                <mxCell id="nrWcvt1calmokvssd4SF-14" style="edgeStyle=none;html=1;" edge="1" parent="G5tOmWW4fX-eoxxO3cUC-1" source="nrWcvt1calmokvssd4SF-10" target="G5tOmWW4fX-eoxxO3cUC-17">
                    <mxGeometry relative="1" as="geometry">
                        <Array as="points">
                            <mxPoint x="100" y="670"/>
                        </Array>
                    </mxGeometry>
                </mxCell>
            </root>
        </mxGraphModel>
    </diagram>
</mxfile>